<?xml version="1.0" encoding="utf-8"?>
<!-- Generator: Adobe Illustrator 16.0.4, SVG Export Plug-In . SVG Version: 6.00 Build 0)  -->
<!DOCTYPE svg PUBLIC "-//W3C//DTD SVG 1.1//EN" "http://www.w3.org/Graphics/SVG/1.1/DTD/svg11.dtd">
<svg version="1.1" id="Capa_1" xmlns="http://www.w3.org/2000/svg" xmlns:xlink="http://www.w3.org/1999/xlink" x="0px" y="0px"
	 width="16px" height="16px" viewBox="0 0 16 16" enable-background="new 0 0 16 16" xml:space="preserve">
<g>
	<path d="M14,6h-1V5.077C13,2.273,10.762,0,8,0C5.239,0,3,2.273,3,5.077V6H2C1.448,6,1,6.448,1,7v8c0,0.552,0.448,1,1,1h12
		c0.552,0,1-0.448,1-1V7C15,6.448,14.552,6,14,6z M4,5.077C4,2.829,5.794,1,8,1s4,1.829,4,4.077V6H4V5.077z M14,15H2V7h12V15z"/>
	<path d="M8,13c1.105,0,2-0.895,2-2S9.105,9,8,9c-1.105,0-2,0.895-2,2S6.895,13,8,13z M8,10c0.551,0,1,0.449,1,1s-0.449,1-1,1
		s-1-0.449-1-1S7.449,10,8,10z"/>
</g>
</svg>
